<svg id="Layer_1" data-name="Layer 1" xmlns="http://www.w3.org/2000/svg" viewBox="0 0 1000 1000"><defs><style>.cls-1{fill:#f0db4f;}.cls-2{fill:#323232;}</style></defs><title>Logo_zolte_krzywe</title><rect class="cls-1" width="1000" height="1000"/><path class="cls-2" d="M279.9,563.5h39.3c39.3,0,67.3,26.1,67.3,63.9s-27.8,63.9-67.3,63.9H279.9V563.5Zm38,104.7c28.4,0,41.4-16.9,41.4-40.8s-13-40.8-41.4-40.8H306.2v81.6Z"/><path class="cls-2" d="M404.7,657.5V611.3h25.4v44.6c0,9,4.3,14.3,13.3,14.3,10.2,0,15.8-5.8,15.8-16V611.3h25.4v80.1H459.2l.6-13.2c-4.9,9.6-14.1,14.9-25.2,14.9C417.1,693.1,404.7,680.3,404.7,657.5Z"/><path class="cls-2" d="M501.7,651.1c0-24.3,18.8-41.5,43.8-41.5,16,0,25.6,5.8,33.7,16l-18,14.7a18.84,18.84,0,0,0-15.6-8.5c-11.5,0-17.9,8.1-17.9,19.4,0,11.7,6.4,19.9,17.9,19.9,8.1,0,12.4-3.8,16.2-7.5l17.1,15c-7.9,8.8-17.3,14.5-33.3,14.5C520.5,693.1,501.7,675.8,501.7,651.1Z"/><path class="cls-2" d="M591.8,581.9c0-9.2,7.5-15.8,16.2-15.8a15.9,15.9,0,1,1,0,31.8A15.9,15.9,0,0,1,591.8,581.9Zm3.4,29.4h25.4v80.1H595.2Z"/><path class="cls-2" d="M641.4,611.3h25.4l-.6,13.2c4.9-9.6,14.3-14.9,25.4-14.9,17.5,0,30.1,12.8,30.1,35.5v46.2H696.3V646.7c0-9-4.3-14.1-13.3-14.1-10.2,0-16.2,5.6-16.2,15.8v42.9H641.4Z"/><path class="cls-2" d="M786.5,563.5h26.3V691.3H786.5Z"/><path class="cls-2" d="M869.1,586.6H832.6V563.5h99.3v23.1H895.4V691.3H869.1Z"/><path class="cls-2" d="M79.3,827.4c0-37.8,29.1-65.4,65.8-65.4,23.1,0,39.7,8.3,51.1,26.1l-20.1,14.3c-6-9.8-16.4-16.7-31-16.7-23.1,0-38.7,17.9-38.7,41.7s15.6,42.1,38.7,42.1c16.5,0,25.8-7.9,32.9-18.8l20.5,14.1c-11.1,17.3-28.8,28.2-53.4,28.2C108.4,893.1,79.3,865.2,79.3,827.4Z"/><path class="cls-2" d="M210,851.5c0-24.4,19.4-41.9,44.2-41.9s44,17.5,44,41.9S279,893,254.2,893,210,875.8,210,851.5Zm62.2,0c0-12-6.8-20.1-18-20.1S236,839.5,236,851.5c0,11.8,7,20.1,18.2,20.1S272.2,863.4,272.2,851.5Z"/><path class="cls-2" d="M315.2,811.3h25.4l-.6,13.2c4.9-9.6,14.3-14.9,25.4-14.9,17.5,0,30.1,12.8,30.1,35.5v46.2H370.1V846.7c0-9-4.3-14.1-13.3-14.1-10.2,0-16.2,5.6-16.2,15.8v42.9H315.2Z"/><path class="cls-2" d="M409,877.8l14.9-13.2c5.5,5.3,12.4,8.5,19.9,8.5,8.3,0,10.9-1.5,10.9-4.9,0-4.3-5.1-4.3-18-7.7-10.9-2.8-23.1-8.8-23.1-25.6,0-18,13.9-25.4,31-25.4,13.2,0,22.6,4.3,29.1,11.1l-13.5,14.5a24.76,24.76,0,0,0-15.4-6c-5.8,0-8.6,1.5-8.6,4.7,0,4.5,5.1,5.1,16,7.5,11.7,2.6,26.3,8.1,26.3,25,0,14.7-7.7,26.7-32.9,26.7C426.9,893.1,416,886.1,409,877.8Z"/><path class="cls-2" d="M493.5,857.5V811.3h25.4v44.6c0,9,4.3,14.3,13.3,14.3,10.2,0,15.8-5.8,15.8-16V811.3h25.4v80.1H548l.6-13.2c-4.9,9.6-14.1,14.9-25.2,14.9C505.9,893.1,493.5,880.3,493.5,857.5Z"/><path class="cls-2" d="M593.8,755.6H619V891.3H593.8Z"/><path class="cls-2" d="M647.2,861.3v-29H635.4V811.2h11.8V769.5h25.2v41.7h20.5v21.1H672.4V862c0,8.1,2.6,9.8,6.6,9.8s7.1-2.3,8.8-3.4l9.6,17.7c-3.9,3.2-10.7,7.3-22.4,7.3C658.9,893.4,647.2,885.3,647.2,861.3Z"/><path class="cls-2" d="M708,781.9c0-9.2,7.5-15.8,16.2-15.8a15.9,15.9,0,1,1,0,31.8A15.9,15.9,0,0,1,708,781.9Zm3.3,29.4h25.4v80.1H711.3Z"/><path class="cls-2" d="M757.6,811.3H783l-.6,13.2c4.9-9.6,14.3-14.9,25.4-14.9,17.5,0,30.1,12.8,30.1,35.5v46.2H812.5V846.7c0-9-4.3-14.1-13.3-14.1-10.2,0-16.2,5.6-16.2,15.8v42.9H757.6Z"/><path class="cls-2" d="M934.1,811.1v18H922.3a17.3,17.3,0,0,1,2.8,9.8c0,17.1-13.2,29.7-33.7,29.7-6.4,0-11.8-.9-16.4-3.2a6.24,6.24,0,0,0-2.1,4.9c0,3.8,2.4,6.2,8.3,6.4l19.7.9c21.8,1.1,34.2,10.2,34.2,25.8,0,16.9-12.4,29.7-44.2,29.7-28.8,0-43.1-11.1-43.1-26.3,0-8.6,5.6-14.3,14.7-17.7-6.6-3.6-9.6-8.8-9.6-16.2,0-7.1,3.9-12.6,11.1-15.8a26.78,26.78,0,0,1-7.1-18.2c0-17.1,13.9-29.3,34.4-29.3a47.56,47.56,0,0,1,11.8,1.5Zm-61.5,92.5c0,6.4,4.5,10.5,18.4,10.5,14.9,0,18.2-3.9,18.2-8.8,0-4.5-3-6-13.3-6.6l-21.1-1.3A9.38,9.38,0,0,0,872.6,903.6Zm30.3-64.7c0-6.4-4.1-10.7-11.8-10.7s-11.8,4.3-11.8,10.7c0,6.8,4.1,11.3,11.8,11.3S902.9,845.7,902.9,838.9Z"/></svg>